# xmcd
#
# Track frame offsets:
#	150
#	11331
#	23059
#	34885
#	47266
#	60040
#	72440
#	84283
#	96026
#	109271
#	121224
#	134765
#	146442
#	170708
#	184241
#	196073
#	208244
#	221129
#	234096
#	247264
#	259339
#	271828
#	282373
#	299133
#
# Disc length: 4181 seconds
#
# Revision: 1
# Processed by: cddbd v1.4PL0 Copyright (c) Steve Scherf et al.
# Submitted via: audiograbber 1.81.02
#
DISCID=69105318
DTITLE=Various Artist - The R&B Hits of 1949
DYEAR=1949
DGENRE=R&B
TTITLE0=Lowell Fulson - Come Back Baby
TTITLE1=Little Willie Littlefield - It's Midnight
TTITLE2=Wynonie Harris - All She Wants To Do Is Rock
TTITLE3=Lionel Hampton Orchestra - Lavender Coffin
TTITLE4=Ivory Joe Hunter - Blues At Midnight
TTITLE5=Amos Milburn - Roomin' House Boogie
TTITLE6=Ruth Brown - So Long
TTITLE7=Jimmy Preston - Rock The Joint
TTITLE8=Tampa Red - When Things Go Wrong with You
TTITLE9=Joe Thomas - Page Boy Shuffle
TTITLE10=Jimmy Witherspoon - In The Evening
TTITLE11=Lightnin' Hopkins - Model-T Blues
TTITLE12=Louis Jordan - Saturday Night Fish Fry
TTITLE13=Bull Moose Jackson - Why Don't You Haul Off and Love Me
TTITLE14=Larry Darnell - For You My Love
TTITLE15=Clarence "Gatemouth" Brown - Mary's Fine
TTITLE16=Memphis Slim - Angel Child
TTITLE17=Roy Brown - Boogie at Midnight
TTITLE18=Jimmy Liggins - Don't Put Me Down
TTITLE19=Mercy Dee - Lonsome Cabin Blues
TTITLE20=Annie Laurie and Paul Gayten Orchestra - Cuttin' Out
TTITLE21=Amos Milburn - Real Pretty Mama Blues
TTITLE22=Jimmy Witherspoon - No Rollin- Blues
TTITLE23=Robert Nighthawk - Annie Lee Blues
EXTD=Indigo Recordings Ltd.\nwww.trojan-records.com
EXTT0=
EXTT1=
EXTT2=
EXTT3=
EXTT4=
EXTT5=
EXTT6=
EXTT7=
EXTT8=
EXTT9=
EXTT10=
EXTT11=
EXTT12=
EXTT13=
EXTT14=
EXTT15=
EXTT16=
EXTT17=
EXTT18=
EXTT19=
EXTT20=
EXTT21=
EXTT22=
EXTT23=
PLAYORDER=
